solid ASCII
  facet normal 0.000000e+00 -1.000000e+00 0.000000e+00
    outer loop
      vertex   2.750000e+02 -2.000000e+02 2.600000e+00
      vertex   2.750000e+02 -2.000000e+02 0.000000e+00
      vertex   2.795000e+02 -2.000000e+02 2.600000e+00
    endloop
  endfacet
  facet normal 0.000000e+00 -1.000000e+00 -0.000000e+00
    outer loop
      vertex   2.795000e+02 -2.000000e+02 2.600000e+00
      vertex   2.750000e+02 -2.000000e+02 0.000000e+00
      vertex   2.795000e+02 -2.000000e+02 0.000000e+00
    endloop
  endfacet
  facet normal 1.000000e+00 0.000000e+00 -0.000000e+00
    outer loop
      vertex   2.795000e+02 9.500000e+00 0.000000e+00
      vertex   2.795000e+02 9.500000e+00 2.600000e+00
      vertex   2.795000e+02 -2.000000e+02 0.000000e+00
    endloop
  endfacet
  facet normal 1.000000e+00 0.000000e+00 0.000000e+00
    outer loop
      vertex   2.795000e+02 -2.000000e+02 0.000000e+00
      vertex   2.795000e+02 9.500000e+00 2.600000e+00
      vertex   2.795000e+02 -2.000000e+02 2.600000e+00
    endloop
  endfacet
  facet normal -0.000000e+00 0.000000e+00 1.000000e+00
    outer loop
      vertex   2.750000e+02 9.500000e+00 2.600000e+00
      vertex   2.750000e+02 -2.000000e+02 2.600000e+00
      vertex   2.795000e+02 9.500000e+00 2.600000e+00
    endloop
  endfacet
  facet normal 0.000000e+00 0.000000e+00 1.000000e+00
    outer loop
      vertex   2.795000e+02 9.500000e+00 2.600000e+00
      vertex   2.750000e+02 -2.000000e+02 2.600000e+00
      vertex   2.795000e+02 -2.000000e+02 2.600000e+00
    endloop
  endfacet
  facet normal -0.000000e+00 -0.000000e+00 -1.000000e+00
    outer loop
      vertex   2.795000e+02 9.500000e+00 0.000000e+00
      vertex   2.795000e+02 -2.000000e+02 0.000000e+00
      vertex   2.750000e+02 9.500000e+00 0.000000e+00
    endloop
  endfacet
  facet normal 0.000000e+00 0.000000e+00 -1.000000e+00
    outer loop
      vertex   2.750000e+02 9.500000e+00 0.000000e+00
      vertex   2.795000e+02 -2.000000e+02 0.000000e+00
      vertex   2.750000e+02 -2.000000e+02 0.000000e+00
    endloop
  endfacet
  facet normal -1.000000e+00 -0.000000e+00 -0.000000e+00
    outer loop
      vertex   2.750000e+02 9.500000e+00 2.600000e+00
      vertex   2.750000e+02 9.500000e+00 0.000000e+00
      vertex   2.750000e+02 -2.000000e+02 2.600000e+00
    endloop
  endfacet
  facet normal -1.000000e+00 0.000000e+00 0.000000e+00
    outer loop
      vertex   2.750000e+02 -2.000000e+02 2.600000e+00
      vertex   2.750000e+02 9.500000e+00 0.000000e+00
      vertex   2.750000e+02 -2.000000e+02 0.000000e+00
    endloop
  endfacet
  facet normal 0.000000e+00 1.000000e+00 0.000000e+00
    outer loop
      vertex   2.750000e+02 9.500000e+00 0.000000e+00
      vertex   2.750000e+02 9.500000e+00 2.600000e+00
      vertex   2.795000e+02 9.500000e+00 0.000000e+00
    endloop
  endfacet
  facet normal 0.000000e+00 1.000000e+00 -0.000000e+00
    outer loop
      vertex   2.795000e+02 9.500000e+00 0.000000e+00
      vertex   2.750000e+02 9.500000e+00 2.600000e+00
      vertex   2.795000e+02 9.500000e+00 2.600000e+00
    endloop
  endfacet
endsolid
