solid ASCII
  facet normal 0.000000e+00 -1.000000e+00 0.000000e+00
    outer loop
      vertex   3.100000e+02 -2.000000e+02 4.500000e+00
      vertex   3.100000e+02 -2.000000e+02 0.000000e+00
      vertex   3.189000e+02 -2.000000e+02 4.500000e+00
    endloop
  endfacet
  facet normal 0.000000e+00 -1.000000e+00 -0.000000e+00
    outer loop
      vertex   3.189000e+02 -2.000000e+02 4.500000e+00
      vertex   3.100000e+02 -2.000000e+02 0.000000e+00
      vertex   3.189000e+02 -2.000000e+02 0.000000e+00
    endloop
  endfacet
  facet normal 1.000000e+00 0.000000e+00 -0.000000e+00
    outer loop
      vertex   3.189000e+02 9.500000e+00 0.000000e+00
      vertex   3.189000e+02 9.500000e+00 4.500000e+00
      vertex   3.189000e+02 -2.000000e+02 0.000000e+00
    endloop
  endfacet
  facet normal 1.000000e+00 0.000000e+00 0.000000e+00
    outer loop
      vertex   3.189000e+02 -2.000000e+02 0.000000e+00
      vertex   3.189000e+02 9.500000e+00 4.500000e+00
      vertex   3.189000e+02 -2.000000e+02 4.500000e+00
    endloop
  endfacet
  facet normal -0.000000e+00 0.000000e+00 1.000000e+00
    outer loop
      vertex   3.100000e+02 9.500000e+00 4.500000e+00
      vertex   3.100000e+02 -2.000000e+02 4.500000e+00
      vertex   3.189000e+02 9.500000e+00 4.500000e+00
    endloop
  endfacet
  facet normal 0.000000e+00 0.000000e+00 1.000000e+00
    outer loop
      vertex   3.189000e+02 9.500000e+00 4.500000e+00
      vertex   3.100000e+02 -2.000000e+02 4.500000e+00
      vertex   3.189000e+02 -2.000000e+02 4.500000e+00
    endloop
  endfacet
  facet normal -0.000000e+00 -0.000000e+00 -1.000000e+00
    outer loop
      vertex   3.189000e+02 9.500000e+00 0.000000e+00
      vertex   3.189000e+02 -2.000000e+02 0.000000e+00
      vertex   3.100000e+02 9.500000e+00 0.000000e+00
    endloop
  endfacet
  facet normal 0.000000e+00 0.000000e+00 -1.000000e+00
    outer loop
      vertex   3.100000e+02 9.500000e+00 0.000000e+00
      vertex   3.189000e+02 -2.000000e+02 0.000000e+00
      vertex   3.100000e+02 -2.000000e+02 0.000000e+00
    endloop
  endfacet
  facet normal -1.000000e+00 -0.000000e+00 -0.000000e+00
    outer loop
      vertex   3.100000e+02 9.500000e+00 4.500000e+00
      vertex   3.100000e+02 9.500000e+00 0.000000e+00
      vertex   3.100000e+02 -2.000000e+02 4.500000e+00
    endloop
  endfacet
  facet normal -1.000000e+00 0.000000e+00 0.000000e+00
    outer loop
      vertex   3.100000e+02 -2.000000e+02 4.500000e+00
      vertex   3.100000e+02 9.500000e+00 0.000000e+00
      vertex   3.100000e+02 -2.000000e+02 0.000000e+00
    endloop
  endfacet
  facet normal 0.000000e+00 1.000000e+00 0.000000e+00
    outer loop
      vertex   3.100000e+02 9.500000e+00 0.000000e+00
      vertex   3.100000e+02 9.500000e+00 4.500000e+00
      vertex   3.189000e+02 9.500000e+00 0.000000e+00
    endloop
  endfacet
  facet normal 0.000000e+00 1.000000e+00 -0.000000e+00
    outer loop
      vertex   3.189000e+02 9.500000e+00 0.000000e+00
      vertex   3.100000e+02 9.500000e+00 4.500000e+00
      vertex   3.189000e+02 9.500000e+00 4.500000e+00
    endloop
  endfacet
endsolid
