<?xml version="1.0" standalone="no"?>
<!DOCTYPE svg PUBLIC "-//W3C//DTD SVG 20010904//EN"
 "http://www.w3.org/TR/2001/REC-SVG-20010904/DTD/svg10.dtd">
<svg version="1.0" xmlns="http://www.w3.org/2000/svg"
 width="682.000000pt" height="733.000000pt" viewBox="0 0 682.000000 733.000000"
 preserveAspectRatio="xMidYMid meet">

<g transform="translate(0.000000,733.000000) scale(0.100000,-0.100000)"
fill="#000000" stroke="none">
<path d="M543 7050 c-91 -19 -154 -76 -172 -159 -12 -57 -6 -99 21 -153 27
-55 81 -87 179 -104 46 -9 95 -18 107 -20 41 -8 72 -48 72 -94 0 -67 -48 -100
-146 -100 -59 0 -156 29 -186 57 -18 16 -21 15 -57 -27 l-38 -44 23 -19 c99
-77 277 -104 395 -59 74 29 121 102 122 191 1 125 -68 190 -229 216 -124 20
-153 41 -154 108 0 29 7 45 29 68 26 26 36 29 93 29 44 0 81 -8 123 -25 33
-14 61 -25 61 -25 4 0 54 81 54 88 0 13 -107 58 -168 71 -59 12 -69 12 -129 1z"/>
<path d="M3775 7045 c-22 -8 -41 -15 -42 -15 -2 0 -16 -19 -33 -42 -40 -54
-41 -124 -5 -192 l24 -46 -45 -42 c-62 -57 -84 -103 -84 -175 1 -135 93 -224
232 -226 47 0 71 7 130 36 l73 36 35 -35 c33 -31 41 -34 99 -34 l63 0 -44 51
c-87 102 -83 93 -50 141 40 58 64 107 58 117 -3 4 -24 14 -47 21 -33 11 -43
12 -47 2 -10 -32 -50 -97 -59 -97 -5 0 -43 40 -83 89 -64 77 -71 90 -56 98 45
25 86 73 97 111 35 131 -90 248 -216 202z m103 -101 c14 -10 22 -25 22 -45 0
-42 -15 -66 -52 -85 -32 -17 -32 -17 -60 17 -16 19 -28 45 -28 61 0 57 68 87
118 52z m-5 -369 c42 -52 80 -101 83 -108 8 -21 -86 -67 -135 -67 -106 0 -172
100 -126 189 16 32 70 81 88 80 7 0 47 -43 90 -94z"/>
<path d="M4702 7049 c-90 -17 -163 -85 -178 -166 -16 -87 30 -184 105 -223 22
-11 75 -25 118 -31 131 -18 163 -40 163 -109 0 -27 -8 -44 -31 -66 -29 -28
-35 -29 -118 -29 -79 0 -94 3 -149 32 l-61 31 -35 -43 -36 -43 48 -30 c71 -45
137 -64 227 -65 180 -1 273 79 263 228 -7 119 -71 176 -224 200 -45 8 -96 21
-111 29 -59 30 -65 106 -11 151 41 34 129 34 213 0 32 -13 62 -21 65 -17 26
39 52 84 49 86 -18 16 -100 49 -151 61 -70 16 -83 17 -146 4z"/>
<path d="M2030 6680 l0 -370 55 0 55 0 0 165 c0 188 9 223 60 250 41 21 89 13
121 -21 23 -25 24 -31 27 -210 l3 -184 55 0 54 0 0 178 c-1 231 -11 272 -81
325 -53 39 -157 34 -209 -9 l-30 -26 0 136 0 136 -55 0 -55 0 0 -370z"/>
<path d="M2600 6995 l0 -55 50 0 50 0 0 55 0 55 -50 0 -50 0 0 -55z"/>
<path d="M1075 6824 c-40 -20 -83 -62 -103 -99 -13 -23 -17 -57 -17 -150 0
-113 2 -123 28 -167 66 -113 224 -138 325 -52 61 52 75 99 71 238 -4 108 -6
117 -34 157 -42 59 -102 89 -179 89 -36 0 -74 -7 -91 -16z m133 -95 c17 -6 38
-22 48 -37 22 -34 31 -156 14 -206 -21 -65 -96 -94 -159 -62 -39 21 -51 56
-51 156 0 80 2 91 25 119 23 26 40 35 81 40 6 0 25 -4 42 -10z"/>
<path d="M1490 6470 l0 -370 55 0 55 0 0 131 0 131 36 -22 c75 -47 153 -45
214 6 57 48 64 75 64 224 1 156 -10 191 -70 236 -33 25 -46 29 -105 29 -54 0
-73 -4 -98 -22 -38 -29 -41 -29 -41 2 0 24 -3 25 -55 25 l-55 0 0 -370z m289
235 c24 -23 26 -34 29 -118 4 -116 -13 -157 -71 -171 -47 -12 -83 0 -111 37
-18 24 -21 43 -21 121 0 99 14 138 58 156 34 15 88 3 116 -25z"/>
<path d="M2600 6575 l0 -265 50 0 50 0 0 265 0 265 -50 0 -50 0 0 -265z"/>
<path d="M2945 6821 c-81 -36 -125 -124 -125 -248 0 -125 39 -201 123 -245 83
-42 226 -20 282 43 18 19 18 20 -16 49 -38 33 -52 36 -68 17 -6 -8 -29 -19
-51 -26 -77 -23 -145 15 -164 92 l-6 27 165 0 165 0 0 74 c0 104 -34 169 -109
208 -64 34 -136 37 -196 9z m166 -112 c18 -20 29 -42 29 -60 l0 -29 -105 0
-105 0 0 31 c0 20 10 40 29 60 24 24 38 29 76 29 40 0 52 -5 76 -31z"/>
<path d="M5060 6836 c0 -2 39 -110 86 -238 47 -128 91 -246 96 -261 9 -26 14
-28 55 -25 l45 3 94 255 c51 140 94 258 94 263 0 4 -24 7 -54 7 l-54 0 -63
-187 -62 -188 -62 185 -62 185 -56 3 c-31 2 -57 1 -57 -2z"/>
<path d="M5695 6826 c-35 -15 -81 -60 -100 -96 -7 -14 -19 -55 -25 -90 -17
-95 1 -196 46 -256 71 -96 268 -104 348 -15 19 21 19 21 0 42 -33 37 -50 41
-86 19 -32 -18 -65 -25 -115 -21 -33 2 -82 51 -89 89 l-6 32 167 0 168 0 -6
78 c-7 116 -47 182 -129 217 -45 18 -132 19 -173 1z m154 -107 c12 -11 26 -32
32 -46 20 -52 17 -53 -102 -53 l-111 0 6 33 c3 17 20 44 36 60 39 35 105 38
139 6z"/>
<path d="M6110 6575 l0 -265 55 0 55 0 0 175 c0 201 7 226 65 245 27 9 43 9
70 0 58 -19 65 -44 65 -245 l0 -175 56 0 55 0 -3 208 c-3 203 -4 209 -28 245
-38 56 -90 80 -159 75 -38 -3 -68 -11 -89 -27 l-32 -22 0 25 c0 25 -3 26 -55
26 l-55 0 0 -265z"/>
<path d="M390 5170 l0 -370 55 0 55 0 2 261 3 261 165 -261 165 -261 53 0 52
0 0 370 0 370 -55 0 -55 0 -2 -259 -3 -260 -165 260 -165 259 -52 0 -53 0 0
-370z"/>
<path d="M1600 5170 l0 -370 55 0 54 0 3 158 3 157 67 3 67 3 81 -161 80 -160
66 0 66 0 -86 164 -86 165 39 22 c145 81 131 300 -23 370 -35 16 -67 19 -213
19 l-173 0 0 -370z m373 242 c48 -45 39 -139 -16 -172 -26 -17 -51 -20 -139
-20 l-108 0 0 111 0 111 119 -4 c109 -3 122 -5 144 -26z"/>
<path d="M3580 5410 c0 -71 -2 -130 -5 -130 -3 0 -20 10 -36 23 -25 18 -44 22
-98 22 -59 0 -72 -4 -105 -29 -58 -44 -69 -81 -70 -226 -1 -144 10 -185 59
-229 64 -55 157 -60 226 -10 l29 20 0 -25 c0 -25 3 -26 55 -26 l55 0 0 370 0
370 -55 0 -55 0 0 -130z m-38 -207 c35 -32 49 -147 28 -225 -19 -65 -82 -95
-143 -67 -41 18 -52 53 -52 160 0 103 10 129 60 150 27 11 86 1 107 -18z"/>
<path d="M3800 5170 l0 -370 54 0 55 0 3 184 c3 179 4 185 27 210 50 53 131
41 163 -24 15 -29 18 -63 18 -202 l0 -168 57 0 56 0 -6 199 c-4 160 -8 206
-22 236 -25 52 -76 87 -135 93 -62 6 -91 -2 -129 -34 l-31 -26 0 136 0 136
-55 0 -55 0 0 -370z"/>
<path d="M5790 5410 c0 -79 0 -80 -25 -80 -22 0 -25 -4 -25 -40 0 -36 3 -40
25 -40 l25 0 0 -170 c0 -193 8 -227 62 -260 21 -12 51 -20 81 -20 l47 0 0 49
0 50 -37 3 -38 3 -3 173 -2 172 40 0 40 0 0 40 0 40 -40 0 -40 0 0 80 0 80
-55 0 -55 0 0 -80z"/>
<path d="M2325 5316 c-40 -18 -79 -56 -101 -97 -23 -44 -32 -219 -14 -276 30
-93 104 -146 205 -146 99 0 173 52 204 142 6 19 11 77 11 131 0 84 -3 103 -26
149 -38 75 -86 105 -178 109 -45 1 -82 -3 -101 -12z m142 -106 c17 -10 37 -29
44 -42 19 -33 18 -178 -1 -212 -40 -76 -158 -72 -191 6 -8 19 -14 66 -14 110
0 62 5 83 21 105 40 54 88 65 141 33z"/>
<path d="M2845 5316 c-83 -38 -117 -100 -123 -223 -5 -107 8 -173 44 -221 78
-101 261 -101 337 0 37 50 47 92 47 198 0 84 -3 103 -26 149 -38 75 -86 105
-178 109 -45 1 -82 -3 -101 -12z m142 -106 c17 -10 37 -29 44 -42 19 -33 18
-178 -1 -212 -40 -76 -158 -72 -191 6 -8 19 -14 66 -14 110 0 62 5 83 21 105
40 54 88 65 141 33z"/>
<path d="M4451 5307 c-24 -12 -57 -42 -74 -65 -30 -41 -32 -49 -35 -150 -5
-137 7 -181 62 -237 97 -97 258 -78 330 39 27 43 31 59 34 145 2 55 -1 115 -7
139 -14 50 -67 113 -115 136 -51 24 -144 21 -195 -7z m182 -118 c25 -27 27
-35 27 -119 0 -100 -11 -135 -51 -156 -66 -34 -141 -2 -160 68 -14 52 -7 165
12 197 34 57 123 62 172 10z"/>
<path d="M4880 5065 l0 -265 55 0 55 0 0 179 c0 176 0 180 25 209 29 35 71 46
116 30 31 -11 34 -9 66 27 18 21 33 42 33 46 0 5 -14 16 -32 25 -44 23 -141
14 -172 -15 -29 -27 -36 -26 -36 4 0 24 -3 25 -55 25 l-55 0 0 -265z"/>
<path d="M5354 5311 c-47 -22 -70 -50 -85 -103 -13 -50 2 -106 38 -140 35 -32
50 -37 147 -49 99 -12 116 -21 116 -59 0 -42 -38 -64 -106 -63 -53 1 -135 30
-149 53 -5 8 -19 0 -46 -26 l-38 -37 38 -29 c87 -64 227 -81 314 -39 67 32 92
72 92 143 -1 101 -49 141 -188 156 -94 10 -117 22 -117 58 0 55 105 73 189 32
l44 -21 29 33 c15 19 28 38 28 42 0 4 -21 19 -47 35 -63 37 -196 44 -259 14z"/>
<path d="M1090 4855 l0 -55 55 0 55 0 0 55 0 55 -55 0 -55 0 0 -55z"/>
<path d="M3217 4040 c-98 -17 -164 -86 -174 -183 -9 -92 30 -168 108 -207 21
-11 73 -25 116 -31 101 -14 131 -26 148 -60 66 -126 -117 -198 -284 -112 l-61
31 -35 -41 -36 -41 23 -19 c110 -89 316 -108 427 -40 105 65 123 219 37 311
-43 47 -71 59 -168 76 -129 23 -153 36 -164 91 -8 43 16 89 55 105 44 18 146
8 200 -18 25 -12 46 -22 47 -22 2 0 17 20 34 45 l30 44 -23 16 c-68 44 -197
69 -280 55z"/>
<path d="M390 3671 l0 -371 143 0 c168 0 223 13 285 66 80 68 87 93 87 304 0
206 -6 230 -77 296 -66 63 -87 69 -270 72 l-168 4 0 -371z m334 240 c63 -39
71 -68 71 -246 0 -153 -1 -162 -24 -194 -34 -47 -75 -61 -181 -61 l-90 0 0
260 0 260 96 0 c78 0 103 -4 128 -19z"/>
<path d="M2020 3984 l0 -55 53 3 52 3 3 53 3 52 -55 0 -56 0 0 -56z"/>
<path d="M2580 3910 l0 -129 -47 25 c-92 50 -205 18 -247 -69 -12 -27 -16 -66
-16 -171 0 -153 9 -186 59 -229 63 -53 153 -55 223 -5 l28 19 0 -25 c0 -25 3
-26 55 -26 l55 0 0 370 0 370 -55 0 -55 0 0 -130z m-43 -202 c27 -22 43 -75
43 -140 0 -90 -15 -135 -50 -153 -74 -38 -142 1 -155 89 -16 103 9 196 58 216
27 12 84 5 104 -12z"/>
<path d="M4690 3719 c0 -272 2 -326 16 -354 19 -40 66 -65 123 -65 l41 0 0 49
c0 49 -1 50 -32 53 l-33 3 -3 318 -2 317 -55 0 -55 0 0 -321z"/>
<path d="M1095 3816 c-26 -12 -75 -51 -75 -60 0 -2 18 -16 39 -31 38 -25 41
-26 63 -11 30 21 135 22 166 0 17 -12 22 -25 22 -60 l0 -44 -94 0 c-105 0
-138 -9 -178 -47 -76 -72 -52 -199 46 -250 19 -10 57 -16 98 -17 55 0 73 4 98
22 29 22 30 22 30 2 0 -18 6 -20 56 -20 l56 0 -4 208 c-3 186 -5 211 -23 242
-32 55 -92 80 -190 80 -45 -1 -93 -7 -110 -14z m215 -334 c0 -54 -21 -78 -74
-86 -109 -17 -185 47 -124 104 18 17 35 20 110 20 l88 0 0 -38z"/>
<path d="M1480 3826 c0 -2 39 -110 86 -238 47 -128 91 -246 96 -261 9 -26 14
-28 55 -25 l45 3 94 255 c52 140 94 258 94 263 0 4 -24 7 -54 7 l-54 0 -63
-187 -62 -188 -62 185 -62 185 -56 3 c-31 2 -57 1 -57 -2z"/>
<path d="M2020 3565 l0 -265 55 0 55 0 0 265 0 265 -55 0 -55 0 0 -265z"/>
<path d="M3754 3811 c-90 -41 -129 -130 -122 -277 6 -138 61 -212 173 -233 71
-13 146 2 201 40 l46 31 -36 36 -35 36 -43 -24 c-50 -28 -115 -31 -153 -6 -24
16 -55 70 -55 96 0 6 58 10 165 10 l165 0 0 63 c0 83 -14 130 -53 174 -61 70
-168 93 -253 54z m147 -91 c22 -12 49 -61 49 -90 0 -19 -6 -20 -110 -20 -69 0
-110 4 -110 10 0 24 30 79 51 94 26 18 90 21 120 6z"/>
<path d="M4241 3819 c-31 -12 -81 -48 -81 -58 0 -5 16 -21 36 -36 35 -27 37
-27 64 -11 18 10 50 16 89 16 76 0 101 -20 101 -80 l0 -40 -97 0 c-123 0 -172
-20 -202 -84 -32 -65 -25 -124 22 -174 37 -40 77 -55 147 -56 53 0 72 4 98 23
32 22 32 22 32 2 0 -19 6 -21 56 -21 l57 0 -6 203 c-3 111 -10 214 -16 229
-13 34 -52 69 -94 85 -38 14 -173 16 -206 2z m209 -328 c0 -55 -16 -79 -61
-91 -106 -29 -200 39 -139 100 17 17 33 20 110 20 l90 0 0 -29z"/>
<path d="M2748 2526 c-98 -27 -167 -95 -187 -186 -14 -60 -14 -296 0 -360 41
-190 296 -259 438 -119 56 56 75 109 79 232 l4 107 -136 0 -136 0 0 -55 0 -55
81 0 81 0 -7 -47 c-13 -91 -66 -143 -145 -143 -56 0 -100 22 -130 67 -24 35
-25 43 -25 192 0 143 2 159 22 191 29 46 71 70 125 70 51 0 102 -28 126 -70
16 -28 21 -30 75 -30 62 0 64 3 43 55 -50 119 -185 185 -308 151z"/>
<path d="M390 2161 l0 -371 55 0 55 0 0 145 0 145 113 0 c104 0 118 2 168 28
151 76 160 298 15 387 -49 30 -50 30 -228 33 l-178 4 0 -371z m362 230 c30
-27 33 -35 33 -86 0 -51 -3 -59 -33 -86 -32 -28 -35 -29 -142 -29 l-110 0 0
115 0 115 110 0 c107 0 110 -1 142 -29z"/>
<path d="M2050 2205 c0 -363 2 -374 65 -401 19 -8 53 -14 75 -14 l40 0 0 50
c0 49 -1 50 -30 50 -19 0 -33 7 -40 19 -6 12 -10 132 -10 320 l0 301 -50 0
-50 0 0 -325z"/>
<path d="M4530 2475 l0 -55 55 0 55 0 0 55 0 55 -55 0 -55 0 0 -55z"/>
<path d="M4780 2400 c0 -79 0 -80 -25 -80 -22 0 -25 -4 -25 -40 0 -35 3 -40
24 -40 l23 0 5 -185 c7 -206 12 -225 73 -251 19 -8 53 -14 75 -14 l40 0 0 50
c0 48 -1 50 -29 50 -48 0 -52 14 -49 186 l3 159 38 3 c36 3 37 4 37 43 0 39 0
39 -40 39 l-40 0 0 80 0 80 -55 0 -55 0 0 -80z"/>
<path d="M1025 2301 c-22 -10 -47 -26 -55 -36 -13 -16 -11 -20 25 -50 l39 -33
24 19 c18 14 41 19 82 19 74 0 102 -20 104 -76 l1 -39 -105 -5 c-121 -6 -164
-24 -192 -80 -58 -115 21 -230 160 -233 56 -2 122 17 122 34 0 5 5 9 10 9 6 0
10 -9 10 -20 0 -17 7 -20 51 -20 l50 0 -3 214 c-3 244 -6 251 -88 294 -57 29
-175 31 -235 3z m225 -315 c0 -12 -5 -37 -11 -54 -9 -25 -19 -34 -52 -43 -108
-29 -199 39 -137 101 17 17 33 20 110 20 88 0 90 -1 90 -24z"/>
<path d="M1490 2123 c0 -171 3 -204 19 -239 44 -96 176 -129 263 -64 l28 21 0
-26 c0 -24 3 -25 55 -25 l55 0 0 265 0 265 -55 0 -55 0 0 -184 c0 -181 -1
-185 -24 -213 -21 -24 -32 -28 -76 -28 -44 0 -55 4 -76 28 -23 28 -24 32 -24
213 l0 184 -55 0 -55 0 0 -197z"/>
<path d="M3305 2303 c-91 -47 -128 -124 -127 -261 1 -145 60 -229 177 -251 81
-15 148 1 217 52 l28 21 -23 24 c-38 41 -52 44 -93 20 -41 -24 -106 -28 -142
-9 -26 14 -62 68 -62 94 0 15 15 17 165 17 l165 0 0 56 c0 116 -43 198 -124
235 -50 23 -140 24 -181 2z m151 -101 c26 -21 44 -54 44 -81 0 -20 -5 -21
-110 -21 -93 0 -110 2 -110 15 0 25 28 72 52 89 30 21 98 20 124 -2z"/>
<path d="M3720 2055 l0 -265 55 0 55 0 0 183 c0 206 4 218 69 238 32 9 44 9
70 -4 l31 -15 35 42 c19 24 35 46 35 49 0 4 -14 14 -32 23 -44 23 -134 15
-176 -15 l-32 -22 0 25 c0 25 -3 26 -55 26 l-55 0 0 -265z"/>
<path d="M4120 2055 l0 -265 54 0 55 0 3 184 c3 179 4 185 27 210 31 33 80 42
118 23 29 -15 29 -15 66 30 37 46 37 46 16 61 -49 34 -150 27 -199 -14 l-30
-26 0 31 c0 31 0 31 -55 31 l-55 0 0 -265z"/>
<path d="M4530 2055 l0 -265 55 0 55 0 0 265 0 265 -55 0 -55 0 0 -265z"/>
<path d="M5130 2298 c-57 -29 -82 -72 -82 -140 1 -92 51 -132 182 -149 103
-12 120 -21 120 -59 0 -73 -136 -88 -231 -25 l-36 24 -37 -38 -37 -38 48 -30
c66 -42 117 -57 193 -56 131 0 205 60 205 165 0 99 -53 144 -181 154 -90 7
-124 23 -124 59 0 55 103 74 190 34 l45 -20 28 31 c16 17 27 37 25 43 -2 7
-26 23 -53 37 -73 36 -192 40 -255 8z"/>
<path d="M5660 2297 c-89 -47 -134 -170 -112 -309 13 -86 48 -142 111 -177 78
-43 215 -28 278 31 30 28 29 32 -11 63 -33 25 -36 25 -59 10 -41 -27 -87 -36
-128 -25 -44 12 -89 61 -89 96 l0 24 166 0 167 0 -6 76 c-11 148 -79 225 -205
232 -56 3 -74 0 -112 -21z m170 -104 c16 -16 33 -43 36 -60 l7 -33 -112 0
c-109 0 -111 0 -111 23 0 24 23 64 50 84 8 7 34 13 57 13 33 0 50 -6 73 -27z"/>
<path d="M6090 2055 l0 -265 50 0 50 0 1 163 c0 192 8 224 61 250 48 24 89 15
123 -25 25 -29 25 -32 25 -209 l0 -179 55 0 55 0 0 193 c0 215 -8 249 -69 300
-54 45 -152 49 -210 8 -37 -27 -41 -26 -41 4 0 23 -3 25 -50 25 l-50 0 0 -265z"/>
<path d="M310 970 l0 -50 100 0 100 0 0 -320 0 -320 60 0 60 0 0 320 0 320
100 0 100 0 0 50 0 50 -260 0 -260 0 0 -50z"/>
<path d="M4620 651 l0 -371 168 0 c92 0 184 5 204 10 84 24 138 101 138 197 0
72 -23 120 -72 152 l-38 24 35 24 c46 31 65 71 65 134 0 75 -30 132 -88 167
-46 26 -51 27 -229 30 l-183 4 0 -371z m361 231 c32 -36 37 -77 15 -121 -21
-40 -56 -51 -166 -51 l-100 0 0 106 0 106 111 -4 111 -3 29 -33z m-21 -287
c40 -21 60 -53 60 -98 0 -85 -37 -107 -185 -107 l-105 0 0 110 0 110 100 0
c70 0 110 -5 130 -15z"/>
<path d="M860 794 c-19 -8 -45 -24 -57 -36 l-22 -21 36 -28 c42 -34 34 -32 69
-14 38 20 133 20 162 -1 17 -12 22 -25 22 -59 l0 -43 -109 -4 c-93 -2 -114 -6
-138 -24 -71 -53 -88 -154 -39 -219 39 -51 80 -69 158 -69 54 0 73 4 98 22 29
22 30 22 30 2 0 -18 6 -20 56 -20 l55 0 -3 208 c-3 239 -10 260 -88 300 -54
27 -174 30 -230 6z m210 -337 c0 -53 -19 -73 -76 -82 -86 -14 -162 34 -134 85
17 32 41 39 128 40 l82 0 0 -43z"/>
<path d="M1320 545 l0 -265 55 0 55 0 0 175 c0 109 4 183 11 199 7 14 28 33
47 42 29 14 41 14 73 5 67 -20 74 -40 77 -243 l4 -178 49 0 49 0 0 165 c0 188
9 223 60 250 44 23 92 13 124 -26 26 -30 26 -32 26 -210 l0 -179 55 0 55 0 0
183 c0 100 -5 199 -11 220 -14 50 -61 103 -106 118 -56 18 -147 6 -189 -26
l-35 -27 -41 29 c-36 24 -51 28 -112 28 -58 0 -77 -4 -103 -23 l-33 -23 0 25
c0 25 -3 26 -55 26 l-55 0 0 -265z"/>
<path d="M2260 794 c-36 -16 -70 -42 -70 -54 0 -4 16 -20 36 -35 35 -27 37
-27 64 -11 18 10 50 16 89 16 76 0 101 -20 101 -80 l0 -40 -97 0 c-121 0 -173
-21 -204 -83 -25 -49 -22 -120 7 -160 51 -69 181 -94 257 -50 36 22 37 22 37
3 0 -17 7 -20 50 -20 l50 0 0 206 c0 245 -4 259 -83 299 -41 20 -65 25 -126
25 -45 -1 -90 -7 -111 -16z m217 -341 c-6 -54 -22 -69 -83 -79 -76 -11 -134
21 -134 75 0 37 37 51 134 51 l89 0 -6 -47z"/>
<path d="M2720 545 l0 -265 55 0 55 0 0 175 c0 109 4 183 11 199 7 14 28 33
47 42 29 14 41 14 73 5 67 -20 74 -40 77 -243 l4 -178 49 0 49 0 0 197 c0 179
-2 201 -21 240 -31 64 -91 97 -168 91 -38 -3 -68 -11 -89 -27 l-32 -22 0 25
c0 25 -3 26 -55 26 l-55 0 0 -265z"/>
<path d="M3280 545 l0 -265 55 0 55 0 0 175 c0 201 7 226 65 245 27 9 43 9 70
0 58 -19 65 -44 65 -245 l0 -175 56 0 55 0 -3 208 c-3 203 -4 209 -28 245 -38
56 -90 80 -159 75 -38 -3 -68 -11 -89 -27 l-32 -22 0 25 c0 25 -3 26 -55 26
l-55 0 0 -265z"/>
<path d="M3900 794 c-19 -8 -45 -24 -57 -36 l-22 -21 42 -32 c42 -32 42 -32
66 -14 30 24 126 26 159 3 17 -12 22 -25 22 -60 l0 -44 -92 0 c-154 -1 -218
-46 -218 -156 0 -98 69 -156 186 -157 51 -1 70 4 94 21 30 22 30 22 30 2 0
-18 6 -20 56 -20 l55 0 -3 214 c-3 244 -6 251 -88 294 -54 27 -174 30 -230 6z
m210 -337 c0 -63 -24 -82 -105 -82 -73 0 -105 20 -105 66 0 44 31 59 127 59
l83 0 0 -43z"/>
<path d="M5247 383 c-4 -3 -7 -28 -7 -55 l0 -48 55 0 55 0 0 55 0 55 -48 0
c-27 0 -52 -3 -55 -7z"/>
</g>
</svg>
