<?xml version="1.0" encoding="utf-8"?>
<!-- Generator: Adobe Illustrator 26.0.1, SVG Export Plug-In . SVG Version: 6.00 Build 0)  -->
<svg version="1.1" id="Слой_1" xmlns="http://www.w3.org/2000/svg" xmlns:xlink="http://www.w3.org/1999/xlink" x="0px" y="0px"
	 viewBox="0 0 1000 1000" style="enable-background:new 0 0 1000 1000;" xml:space="preserve">
<g>
	<path d="M771.5,432.5c-0.4-0.9-0.7-1.8-1.1-2.6c-0.2-0.4-0.3-0.8-0.5-1.2c-1.6-3.7-3.2-7.3-4.9-10.9c0.3-7.6,0.6-15.1,0.8-22.7
		c-0.4,0-0.7,0-1.1,0c-0.5,6.3-1.1,12.6-1.6,18.9c-2.3-4.7-4.8-9.3-7.3-13.9c0,0,0-0.1,0-0.1c0,0,0,0,0,0.1
		c-3.5-6.3-7.3-12.4-11.3-18.4c0.5-1.5,0.9-3.2,1.4-4.8c0.6-1.9,1.1-3.9,1.7-5.8c-0.1,0-0.2-0.1-0.3-0.1c-1.3,2.9-2.7,5.8-4,8.8
		c-0.1-0.2-0.3-0.4-0.4-0.6c-0.5-13-1.1-25.7-3.7-38.2c-0.4-1.8-1.5-4.1-3-5c-2.1-1.3-2.6-2.9-2.9-5c-0.1-0.9-0.3-1.8-0.5-2.7
		c-0.8-3.9-1.6-7.8-2.5-11.7c-0.2,0-0.4,0-0.6,0.1v2.6c0,4.4,0.1,8.9,0.1,13.3c0,0.7-0.1,1.7-0.5,2c-3.3,2.1-4.1,5.5-4.2,9
		c-0.1,4-0.1,7.9-0.1,11.8c-5.7-6.8-11.8-13.5-18.1-19.8c-32.2-32.2-70.6-56.1-112.4-70.6c1.6-6.7,2.5-13.8,2.5-21
		c0.7-54.6-42.9-99.2-96.8-99.5c-55.1-0.3-98.9,42.9-99.3,98c0,7.4,0.7,14.5,2.3,21.4c-21.5,7.2-42.2,16.8-61.6,28.8
		c-19.4,12-37.5,26.3-54,42.9c-8.4,8.4-16.2,17.1-23.4,26.3c0.4-2,0.8-4.1,1.1-6.1c1.6-11.1,2.4-22.2,1.2-33.4
		c-0.4-3.4-0.9-6.7-3.8-9.1c-0.7-0.6-1.2-1.7-1.2-2.5c-0.1-5.2,0-10.4,0.1-15.5c0-0.5-0.1-1-0.2-1.5c-0.7,1.2-1,2.3-1.2,3.5
		c-1,4.7-1.9,9.3-2.9,14c-0.2,0.7-0.7,1.6-1.2,1.9c-3,1.2-4.1,3.6-4.6,6.5c-3,17-4,34.1-2.6,51.3c0.2,2.5,1.3,4.3,3.6,5.5
		c0.2,0.1,0.4,0.3,0.6,0.6c-2.4,3.5-4.8,7-7,10.6c0-2,0.1-4.1,0.1-6.1c-0.2,0-0.4,0-0.6,0c-0.2,1.1-0.4,2.1-0.6,3.2
		c-0.2,0-0.3,0-0.5-0.1c0-0.4-0.1-0.8-0.1-1.2c-0.2,2.7-0.5,5.4-0.7,8c-2.6,4.2-5,8.5-7.3,12.8c-1.7-6.9-3.5-13.7-5.2-20.6
		c-0.3-1-0.4-2.1-0.3-3.1c0.3-3.3,0.7-6.5,1.1-9.8c0.5-4.4,1-8.9,1.5-13.3c-0.2,0-0.4-0.1-0.6-0.1c-1.4,5.9-2.7,11.8-4.1,18.1
		c-3.6-8.5-7-16.6-10.4-24.7c2.5,10.4,5,20.6,7.6,30.9c0.3,1.3,0.8,2.8,0.5,4.1c-0.6,3.6-1.5,7.1-2.3,10.6c-0.1,0.5-0.6,1.2-1.1,1.4
		c-3.1,1.2-3.9,3.7-4.1,6.7c-0.1,2.1-0.3,4.2-0.5,6.5c-2.4-1.6-4.5-3-6.5-4.4v1c1.9,1.5,3.9,3,5.7,4.7c0.6,0.5,0.6,1.8,0.6,2.7
		c-0.3,10.8-0.7,21.7-0.9,32.6c-10.8,31-16.4,63.9-16.4,97.7c0,30.1,4.5,59.5,13,87.4c1,3.2,2,6.3,3.1,9.4c1.3,3.8,2.7,7.5,4.1,11.2
		c1.5,3.8,3,7.5,4.7,11.2c1.5,3.5,3.1,6.9,4.8,10.3c0.2,0.5,0.5,1,0.7,1.5c0.5,1.1,1.1,2.2,1.7,3.3c0.1,0.3,0.3,0.5,0.4,0.8
		c1,1.9,2,3.8,3,5.7c0.3,0.6,0.7,1.2,1,1.9c0.1,0.2,0.3,0.5,0.4,0.7c0.9,1.6,1.7,3.1,2.6,4.7c0.5,0.8,0.9,1.6,1.4,2.4
		c0.9,1.5,1.7,2.9,2.6,4.4h44.3c10.6,0.6,21.2,1.1,31.8,1.4c21.2,0.7,42.4,0.9,63.6,0.8c17.1-0.1,34.2-0.9,51.3-1.8
		c2-0.1,4-0.2,6-0.4h308.9c0.9-1.4,1.7-2.8,2.5-4.2c1.8-3.1,3.6-6.2,5.3-9.3c0.1-0.1,0.2-0.3,0.2-0.5c0.6-1.1,1.2-2.3,1.8-3.4
		l0.4-0.8c0.6-1.1,1.2-2.2,1.7-3.3c0.1-0.2,0.2-0.5,0.4-0.8c0.6-1.1,1.1-2.2,1.7-3.3c0.1-0.3,0.3-0.5,0.4-0.8c1-2.1,2-4.2,3-6.3
		c0.2-0.3,0.3-0.7,0.5-1.1c0.3-0.7,0.6-1.3,0.9-2c0.7-1.5,1.3-3,1.9-4.4c1.5-3.6,3-7.3,4.4-11c1.5-4.1,3-8.2,4.3-12.4
		c1.8-5.6,3.5-11.3,4.9-17.1c0.9-3.3,1.7-6.7,2.4-10.1c2.4-10.8,4.2-21.9,5.3-33c1.1-10.3,1.6-20.7,1.6-31.1
		C793.5,505.8,785.9,467.7,771.5,432.5z M757.5,461.1c-0.4,0-0.7,0.1-1,0.2c-0.6-3.4-1.1-6.8-1.7-10.1c-0.4-2.5-0.4-2.6,1.9-4.7
		C757,451.4,757.2,456.2,757.5,461.1z M756,425c0.1,5.1,0.3,10.2,0.5,15.3c0.1,2.3-0.5,4.1-2.5,5.8c-0.2-1-0.4-1.8-0.6-2.7
		c-1.6-7.8-3-15.7-5-23.4c-1.2-4.6-2.1-9.2-2.1-14C749.8,412.2,753,418.5,756,425z M747.2,462.1c0.8,5.3,1.7,10.7,2.4,16
		c2.3,19.2,4.6,38.4,6.8,57.5c0.7,5.6,1.3,11.3,1.2,17c0,4.5-1.2,8.9-1.9,13.4c-3.1,20.1-4.3,40.4-5.3,60.6
		c-0.6,11.2-1.4,22.4-2.2,33.7c0,0.4-0.1,0.8-0.2,1.2h-4c0-1.3,0-2.4,0-3.5c0-36.7-0.1-73.3-0.1-110c0-9.5-0.2-18.9-0.4-28.4
		c-0.2-7.8-0.8-15.6-0.7-23.4c0.1-9,0.5-18,1.2-27c0.2-2.5,1.6-4.8,2.4-7.2C746.6,462,746.9,462,747.2,462.1z M744.4,461.7
		c0.2-3.7,0.3-7,0.5-10.3C745.5,454.7,747.9,458.2,744.4,461.7z M745.4,404.5c-0.1,0.5-0.2,1-0.2,1.5c-1.5-2.3-2.5-4.7-3-7.1
		C743.3,400.7,744.4,402.6,745.4,404.5z M739.2,406.5c0.8,10.3,3.4,20.5,1.9,30.9C740.1,427.1,738.6,416.8,739.2,406.5z
		 M733.6,553.5c0-2.6,0-5.3-0.3-7.9c-1-9.1,1.9-17.5,4-26.2c1-4,1.9-8.1,2.8-12.2h1v154.2c-1.1,0-2.2,0-3.3,0
		c-1.1,0-2.3-0.1-3.9-0.2c0-4.7,0-9.3,0-13.8c0-6.4,0.2-12.8,0.2-19.2C734,603.3,733.8,578.4,733.6,553.5z M729.7,521.8
		c1.3,11.3-1.1,22.4-2.1,33.6c-0.6,6.6-1.4,13.2-2.1,19.9c-0.1,0.6-0.2,1.1-0.2,1.7c-0.1,0-0.2,0-0.4,0c-1-9.9-2.6-19.8-3-29.7
		c-0.2-6,1.4-12.2,2.4-18.3c1-5.8,2.3-11.6,3.5-17.3c0.1-0.5,0.4-1,1.1-1.4c0.3,3.3,0.5,6.5,0.8,9.8
		C729.8,520.6,729.7,521.2,729.7,521.8z M723,661.2c-1.5-0.1-2.7-0.2-3.8-0.2v-89.2C723.9,601.3,723.5,631.1,723,661.2z
		 M724.1,520.6c-0.3,0-0.5-0.1-0.8-0.1c1.1-9.3,2.2-18.5,3.4-28.2C730.2,502.6,725.6,511.4,724.1,520.6z M717,505.7
		c-3.6-29.9-7.2-59.8-10.8-90.1c7,5,13.4,10.4,21.6,13.3C722.2,454.1,719.4,479.9,717,505.7z M715.8,531.3c0.5,2.2,0.1,4.6,0.1,6.9
		c0,15.5,0,31.1-0.1,46.6c-0.1,15.9-0.4,31.9-0.6,47.8c-0.1,9.4,0,18.7,0,28.2h-6.1c-0.2-53.5,2.6-106.9-0.8-160.7
		C710.9,510.8,713.5,521,715.8,531.3z M727.6,662.8c0.5,5-4.1,10.4-8.5,11c-0.4,0.1-0.7,0.2-1,0c-4.6-3.6-9.2-6.8-14.4-10.9H727.6z
		 M726.9,661.1c-0.2-33.3,0.9-66.6,4.5-99.7v99.7H726.9z M735.3,489c-1.1,8.8-2.2,17.6-3.2,26.2C729.7,506.2,730.9,497.4,735.3,489z
		 M737.2,427.5c0.2,1.9,0.3,3.9,0.5,5.9C736,432.4,736,432.4,737.2,427.5z M735.9,434.7c0.2-0.1,0.5-0.1,0.7-0.2
		c0.5,1.1,1.2,2.2,1.3,3.3c0.8,10.7,1.1,21.4-0.2,32.2c-1.1,9.1-4.2,17.4-7.4,26.5c-1-7.5-2.4-14.2-1.1-21.3
		c2.3-12.8,4.1-25.6,6.2-38.4C735.5,436.1,735.7,435.4,735.9,434.7z M339.9,306.7c-0.8,3.9-1.6,7.9-2.5,11.8c-0.1,0.7-0.5,1.6-1,1.8
		c-3.5,1.3-4.5,4.3-5.1,7.6c-2.3,12.7-3.1,25.6-3.1,38.5v2c-0.2,0-0.4,0.1-0.5,0.1c-1.8-3.9-3.5-7.8-5.5-12.4
		c2.4,8.6,4.7,16.5,6.7,24.5c0.5,1.8,0.2,4-0.3,5.9c-0.6,2.6-1.6,5.2-2.5,7.7c-0.2,0.5-0.4,0.9-0.9,1.9c-0.4-2.7-0.6-4.7-0.9-6.8
		c-0.3,3.6,0,7.3-0.4,10.8c-0.4,3.6-1.5,7.2-2.3,10.8c-1.9,8.8-3.8,17.6-5.7,26.4c-0.2,0.1-0.4,0.2-0.6,0.3c-0.7-1.7-1.6-3.2-1.9-5
		c-0.3-1.7,0.2-3.6,0.2-5.4c0.4-13.1,0.7-26.1,1.1-39.2c-0.1,0-0.3,0-0.4,0c-1.7,13.5-3.4,27-5.1,40.5c-0.2,0-0.4,0-0.6,0
		c-1.3-15.2-2.6-30.4-4-45.6c-0.3,0-0.7,0-1,0.1c0.5,13.7,1,27.4,1.4,41.3c-2.4-2.2-4.6-4.1-6.8-6.2c-0.5-0.5-0.7-1.4-0.7-2.1
		c0.3-4.3,0.7-8.5,1-12.8c0.7-7.5,1-15.1,2.1-22.6c1.6-10.4,3.7-20.7,5.5-30.3c-6.1,17.2-10.6,35.6-14.2,54.2
		c-2.1-7.8-4.6-15.5-3.9-23.7c-0.2,1.2-0.4,2.4-0.7,3.6c-0.1,0-0.2,0-0.3,0c-1.5-6.7-3.1-13.3-4.6-20c0.3,6.9,1.2,13.8,1.8,20.6
		c0.6,6.2,2.3,12.3,0.8,18.6c-0.2,0.7-0.4,1.6-0.9,2.1c-1.9,1.6-2.4,3.6-2.2,6c0.3,4.8,0.7,9.5,0.5,14.3c-0.3,5.7-1.2,11.3-2,16.9
		c-0.5,3.8-1,7.7-1.5,11.5c-0.3,0-0.6,0-0.9,0c-2.7-21.6-5.3-43.2-8-64.8c-0.2,0-0.5,0-0.7,0c0.6,17.7,1.1,35.4,1.7,53.1
		c-0.2,0-0.4,0.1-0.6,0.1c-0.2-1-0.6-2-0.7-2.9c-0.5-3.2-0.8-6.5-1.3-9.8c-2.1-15-4.7-29.8-8.3-44.5
		C281.2,354.5,308.4,327.6,339.9,306.7z M341.6,582.9c-1.3,0.5-2,0.4-2-1.2c0-7.6,0-15.3,0-22.9h0.5c0.1,0.2,0.2,0.5,0.2,0.7
		C340.7,567.3,341.2,575.1,341.6,582.9z M340.9,528.6c0.2-2.5,0.3-5,0.5-7.6c0.1,0,0.2,0,0.3,0v7.6
		C341.4,528.6,341.2,528.6,340.9,528.6z M387.2,674.6c0.8-2.7,1.6-5.2,2.6-8.4c16,0.6,32.4,1.3,48.8,2
		C431.8,671,395.3,675.3,387.2,674.6z M444.4,670.3c5.1-0.5,8.7-0.9,13.8-0.3c12.6,1.5,25.2,3.2,37.9,4.9c0.3,0-61.8,1.9-93.2,2.9
		c-0.2-3.2,1.3-2.3,3.9-2.3C410.1,675.3,435.7,671.1,444.4,670.3z M384,674.6c-2.5,0-5.1-0.3-7.6-0.4c-5.8,0-8.9-4.6-12.9-7.8
		l23.5,0C387.5,669.4,384.6,674.6,384,674.6z M284,645.4c0-12.5,0-25,0.2-37.5c0.3-13.9,0.9-27.8,1.3-41.6c0-0.8,0.2-1.5,0.3-2.3
		c0.1,0,0.2,0.1,0.3,0.1c0.6,8.3,1.4,16.7,1.8,25c0.6,14.5,1.1,29.1,1.5,43.6c0.2,8.4,0.1,16.7,0.2,25.1c0,2.5,0.3,4.9,0.4,7.4
		c0,1.9-1.6,2.6-4.7,2.4c-1.9-0.1-1.3-1.6-1.3-2.6C284,658.5,284,652,284,645.4z M289.3,491.8c0.3-3.3,0.5-6.1,0.8-9.6
		C293.2,487.9,293.2,487.9,289.3,491.8z M291.8,469.9c0.8,5.4,1.6,10.1,2.3,14.8C290.5,478.1,290.1,475.2,291.8,469.9z M291,527.7
		c0.4-1.8,3.5-3,5.4-4.4c0.4,0.2,0.9,0.5,1.3,0.8c-1.8,17.1-3.6,34.2-5.4,51.3c-0.1,0-0.3,0-0.5,0c-0.3-2.3-0.5-4.6-0.8-6.9
		c-0.8-7.7-2.1-15.3-2.3-23C288.7,539.5,289.7,533.4,291,527.7z M297.6,425.7c0-1.9-0.2-3.9-0.3-6.1c2.7,2.5,5,4.7,7.3,7
		c0.6,0.6,0.8,1.6,0.9,2.4c1.2,12.5,1.5,24.9-0.8,37.3c-0.8,4-1.5,8-2.9,11.9c-0.8,2.3-2.8,4.2-4.2,6.3c-0.3-0.1-0.5-0.3-0.8-0.4
		c-0.1-0.5-0.3-1-0.4-1.6c-0.4-3-0.8-6-1.3-9c-0.3-2.1-1.2-4,1.3-5.8c1.1-0.8,1.4-3.1,1.4-4.8C297.8,450.5,297.7,438.1,297.6,425.7z
		 M301.2,560.4c0-7.5-0.3-15-0.7-22.4c-0.3-5.5,1.5-10.6,2.5-15.9c0.2,0,0.5,0,0.8,0c1.1,5.2,3.1,10.4,3.2,15.7
		c0.5,23.9,0.5,47.8,0.7,71.8c0.2,17.8,0.4,35.7,0.6,53.5c0,1,0,1.9,0,3c-2.3,0.1-4.3,0.3-6.6,0.4c-0.1-2.5-0.4-4.8-0.4-7.2
		c0-6.4,0.2-12.8,0.2-19.2C301.4,613.5,301.4,586.9,301.2,560.4z M298.6,559.9v106.5c-1.3,0.1-2.6,0.3-4.2,0.4
		C292.7,630.9,294.8,595.4,298.6,559.9z M310.4,667.5c8.6-0.4,17.2-1.2,25.8-0.8c4.6,0.2,9.2,2.5,13.8,4c0.4,0.1,0.8,1.2,0.7,1.9
		c0,0.4-0.9,0.8-1.4,1c-5.6,2.1-11.2,1.6-17,0.9c-14.8-1.8-29.6-3.4-44.5-5.1c0-0.2,0-0.3,0-0.5
		C295.4,668.4,302.9,667.8,310.4,667.5z M326.3,459.5c0.2,0.4-0.3,1.3-0.7,1.7c-0.9,0.8-2,1.3-3.7,2.2c0.5-3.3,1-6.1,1.4-8.9
		c0.2,0,0.3-0.1,0.5-0.1C324.6,456.1,325.5,457.8,326.3,459.5z M325.5,442.7c0.2,3.6,0.4,7.2,0.7,11.3
		C322.4,450.1,325,446.4,325.5,442.7z M326.7,521.4v143.8c-1.6,0.1-2.9,0.1-4.4,0.2c-0.2-3.3-0.4-6.5-0.7-9.7
		c-2-26.7-3.8-53.4-6-80.1c-0.6-7.9-2.4-15.6-3.3-23.4c-0.4-3.5,0.1-7,0.4-10.6c0.4-5.8,1-11.6,1.5-17.4c0.1-2,0.6-3.6,3.1-3.9
		C318.3,521.6,318.3,521.6,326.7,521.4z M320.2,665.4c-2.9,0.2-5.4,0.3-8.1,0.5v-99.7C317.1,599.1,317.5,632.2,320.2,665.4z
		 M313.3,453.8c-0.4,0-0.7-0.1-1.1-0.1c0.3-5.2,0.6-10.4,0.9-15.6c0.2-0.1,0.4-0.1,0.7-0.2c0.6,1.1,1.7,2.3,1.6,3.4
		C314.9,445.5,314,449.6,313.3,453.8z M312.8,459.1c-0.4,3.1-0.8,6.3-1.2,9.4c-0.1,0-0.2,0-0.3,0c0.3-3.2,0.5-6.3,0.8-9.5
		C312.3,459,312.5,459,312.8,459.1z M336.8,570.1v12C333.2,577.7,336.2,573.8,336.8,570.1z M336.8,590.5v74.3h-7.3v-75
		C332,590.1,334.3,590.3,336.8,590.5z M336.8,552.6c-1.4,8-4.4,15.6-6.8,23.4c-0.1,0.2-0.2,0.4-0.7,1.1c0-3.9,0-7.2,0-10.6
		c0.1-14.5,0.2-28.9,0.3-43.4c0-1.5,0.1-2.9,2-2.9c1.7,0,3.1,0,3.8,2.4C338.7,532.5,338.5,542.6,336.8,552.6z M330.1,429
		c-2-3-0.7-26.1,1.5-33.5c0.3,0,0.5,0,0.8,0.1C331.6,406.6,330.9,417.6,330.1,429z M353,588.6c-0.3,1.1-0.5,2.2-0.9,3.2
		c-1.5,3.5-1.6,7.1-1,10.8c0.9,5.5,1.7,11,1.8,16.6c0.2,13.8,0.1,27.6,0.1,41.4c0,1.1-0.4,2.2-0.7,3.3c-0.6,1.6-1.3,3.1-2.2,5.3
		c-0.6-1-1.4-1.8-1.4-2.5c0.2-22.7,0.4-45.5,0.7-68.2c0-2.9,0.7-5.7,1-8.6C350.5,588.4,351.3,588.1,353,588.6z M351.1,582.2
		c0.2-4.2,0.5-8.3,0.7-12.5c0.1,0,0.3,0,0.4,0c0.1,4.2,0.3,8.4,0.4,12.6c0,0.4-0.6,0.8-0.9,1.1C351.5,583.1,351.1,582.6,351.1,582.2
		z M359.9,679.4h-16.5C347,677.4,357.8,677.3,359.9,679.4z M359.4,559.2c-0.8,4.2-1.7,8.5-3.1,12.7c0-2,0-3.9,0-5.9
		c-0.1-12.1-0.6-24.2-0.2-36.2c0.2-5.6,2.2-11.2,3.4-16.8c0.5-0.1,0.9-0.1,1.3-0.2c0.4,1.1,1.3,2.2,1.3,3.3
		c0.2,8.9,0.6,17.8,0.1,26.6C361.9,548.2,360.4,553.7,359.4,559.2z M362.1,565.8v17.3H359c0.9-5.8,1.8-11.6,2.7-17.3
		C361.8,565.8,362,565.8,362.1,565.8z M358,663.7c-0.3-18.7-0.3-37.5-0.4-56.2c0-1.1,0.1-2.2,0.4-3.2c1.4-4.2,1.3-8.3,0.2-12.6
		c-0.9-3.5,0-4.2,4.5-3.5v76.2c-0.6,0.3-1.3,0.7-2.1,1c0.5,0.8,0.8,1.8,1.4,2.4c1.8,1.6,3.8,3.1,5.4,5.2c-2.2-0.9-4.4-1.6-6.5-2.7
		C358.3,669,358.1,666,358,663.7z M361.6,443.9c-0.1,0.7-0.8,1.8-1.5,2c-3.6,1.1-7.3,1.9-11,2.8c-1.8-9.8-3.6-19.5-5.3-29.2
		c8.3-3,15.1-8.4,22.6-14c-0.5,3.8-0.8,7-1.2,10.3C363.9,425.2,362.8,434.5,361.6,443.9z M348,528.9c0.8,6.6,2.4,12.4,1.6,18.6
		c-1.3,9.2-2.1,18.5-3.4,27.9c-0.4-3.9-0.9-7.7-1.3-11.6c-0.5-5-1.1-10-1.6-14.9C342.6,542,344,535.8,348,528.9z M343.5,605.9
		c0.3,19.4,0.4,38.8,0.6,58.2c0,0.7-0.1,1.4-0.1,2.2c-4.3-0.7-4.3-0.7-4.3-4.8c0-23.1-0.1-46.2-0.1-69.3v-2.6c1-0.1,1.8-0.1,3.1-0.2
		C342.9,595,343.5,600.5,343.5,605.9z M332.7,457c-1.7-9.9,0-19.4,0.3-28.9c0-0.9,1-1.7,1.5-2.6c0.2,0.1,0.4,0.2,0.6,0.2
		c1.5,9.1,3.1,18.2,4.6,27.5C337.5,454.5,335.3,455.7,332.7,457z M333.2,424.1c0.1-2.1,0.2-4.1,0.3-6.2c0.2,0,0.5,0,0.7,0.1
		C333.7,420,335.9,422.2,333.2,424.1z M281.7,665.3c0,2-0.3,3-2.5,2.7c-0.8-0.1-1.6,0-2.8,0V538.7c1.7-0.8,3.4-1.6,5.4-2.5
		c0,4.2,0,8.1,0,12c0.1,13.4,0.3,26.8,0.2,40.2c0,14-0.3,28-0.4,41.9C281.6,642,281.6,653.7,281.7,665.3z M256.5,667.2v3.1
		c-2.5,0.3-4.6,0.5-6.8,0.8c-0.4-58.8,3.5-117.5,0.3-176.2c1,3.9,2,7.7,2.9,11.6c1.5,6.1,3.2,12.2,4.5,18.4c0.5,2.7,0.2,5.5,0.1,8.3
		c-0.3,14.3-0.9,28.6-1,42.9C256.4,606.5,256.5,636.8,256.5,667.2z M255.4,475.5c4.5,8.9,5.4,17.6,3.1,26.8
		C257.5,493.5,256.5,484.8,255.4,475.5z M259.4,550.2c1.1,12.9,2.3,25.9,3.4,38.9c0.3,4.2,0.4,8.4,0.4,12.6
		c0.2,21.5,0.3,42.9,0.5,64.4c0,1.1,0,2.1,0,3.3c-1.5,0.2-2.8,0.4-4.3,0.6V550.2z M261.6,531.3c-1.1-8.9-0.9-17.8-0.1-26.8
		c0.2-2.1,0.3-4.2,1-6.9c0.1,0.3,0.1,0.6,0.2,0.9c1.5,7.1,3.2,14.2,4.5,21.4c0.3,1.5-0.7,3.2-1,4.8c-0.2,1-0.3,1.9-0.4,2.9h2.6
		c1.5,4.9,1,9.9,0.4,15c-1,8.4-1.8,16.8-3.1,25.2c-0.3-2.9-0.6-5.8-1-8.7C263.7,549.9,262.7,540.6,261.6,531.3z M263.8,478.8
		c0.4-3.4,0.9-6.8,1.5-10.2c2.4,9.9,5.1,46.1,3.8,48.3c-2.1-8.6-4.6-17.3-6.2-26.1C262.3,486.9,263.4,482.8,263.8,478.8z
		 M272.3,555.4c2.6,38,0.8,75.4,1.7,113c-2.2,0.2-3.8,0.4-5.8,0.6C268.7,631.1,267.6,593.4,272.3,555.4z M270.6,446.8
		c0.3,0,0.5,0,0.8-0.1c0.3,4.2,0.6,8.5,0.9,12.7c-0.1,0-0.2,0-0.4,0L270.6,446.8z M253.9,423c0.9-10.6,1.8-21.3,2.7-31.9
		c0.3-0.6,0.7-1.1,1-1.6c1.2,13.9,2.3,27.7,3.5,41.9c-2.4-2.3-4.7-4.4-6.9-6.5C254,424.4,253.8,423.6,253.9,423z M253.6,426
		c2.8,3,5.3,5.6,7.7,8.3c0.4,0.5,0.6,1.3,0.7,2c0.8,6.3,1.7,12.5,2.2,18.8c0.2,2.1-0.2,4.4-0.5,6.5c-1,6.8-2.1,13.6-3.2,20.5
		C252.7,464.3,249.7,446,253.6,426z M250.2,401.6c-0.6,3.5-1.3,7.1-2,10.6c-0.4-1.8-0.7-3.5-1-5.3
		C248.1,405.2,249.2,403.4,250.2,401.6z M244,427.1c0.2,0,0.4,0,0.7,0v14.5c-0.2,0-0.5,0-0.7,0V427.1z M221.5,474.3
		c0.2-2.8,0.9-5.5,1.2-8.3c0.1-0.4,0.1-0.8,0.2-1.2c0.2-0.8,0.5-1.6,0.7-2.4c0.4-0.8,1-1.6,2-2.2c0.8-0.5,1.4-1.9,1.5-2.9
		c0.5-3.4,1-6.7,1.5-10.1c1.4-3.7,2.8-7.4,4.3-11.1c0.2,1.1,0.4,2.2,0.5,3.3c0.8,4.9,1.8,9.9,2.2,14.9c0.2,3-0.3,6-0.7,9
		c-2.3,20-4.6,40-7,60c-0.1,0.5-0.2,1-0.3,1.5c-2.1-9.5-3.8-19-6.5-28.3C219,488.9,221,481.7,221.5,474.3z M213.7,580.1
		c-1.4-11.5-2.2-23.2-2.2-35.1c0-8.3,0.4-16.5,1-24.6c1.3,2.7,2.2,5.5,2.1,8.7C214.2,546,213.8,563.1,213.7,580.1z M215.6,502
		c-0.2-0.9-0.3-1.8-0.5-2.8c0.5-3.1,1-6.2,1.7-9.3C217,493.9,216.3,498,215.6,502z M216.6,598.9v-46c0.2,0,0.4,0,0.6,0
		c0.2,4.1,0.4,8.3,0.7,12.4c0.6,7.6,1.5,15.2,2,22.8s0.5,15.3,0.6,22.9c0,1.7,0,3.5,0,5.2C219,610.5,217.7,604.7,216.6,598.9z
		 M222.9,567.9c-0.5-4.6-1-9.1-1.5-13.7c-1.1-10.2-2.6-20.4-3.2-30.6c-0.4-6.3,0.3-12.6,0.5-18.9c0.1-2.2,0.3-4.3,0.5-6.5
		c0.2,0,0.5,0,0.7,0c1.6,8,3.3,16,4.9,24.1c0.7,3.6,1.5,7.3,1.7,10.9c0.2,3.7-0.4,7.4-0.7,11C225,552,224.2,559.9,222.9,567.9z
		 M225.5,633.5c0.1-25.8,0.6-51.4,3.8-77c0.3,3.4,0.8,7,0.9,10.6c0.4,20.4,0.8,40.8,1.1,61.2c0.1,7.1,0.1,14.3,0.1,21.4
		C229.2,644.3,227.3,638.9,225.5,633.5z M239.4,590.8c0,14.3,0.2,28.6,0.4,42.9c0.1,11.9,0.2,23.8,0.5,35.8v0.3
		c-2.4-4.8-4.6-9.7-6.7-14.7c0-18.8-0.1-37.7-0.1-56.5c0-19.1-1.7-38.1-3.3-57.1c-0.6-6.5,1-13.2,2.3-19.7
		c1.9-9.7,4.5-19.2,6.8-28.8c0.4-1.6,0.6-3.2,0.9-4.8c0.1,0,0.3,0,0.4,0.1c-0.4,9.9-1,19.9-1,29.8
		C239.3,542.3,239.4,566.6,239.4,590.8z M240.8,419.5c-0.1,0-0.1,0-0.2,0c0.1-0.2,0.1-0.3,0.2-0.5
		C240.8,419.2,240.8,419.3,240.8,419.5z M241.4,672.1c0.5-49.3-1.2-98.6,2.6-147.9c0.3,0,0.7-0.1,1-0.1c0.4,11.9,1.1,23.8,1.1,35.7
		c0.2,36,0.1,71.9,0.1,107.8c0,4.2,0,4.3-4.7,4.6C241.5,672.2,241.4,672.2,241.4,672.1z M242.3,673.9c12.6-2.2,21.3-3.1,34-4
		c4.8-0.3,41.5,4.3,53.3,5.6c-0.9,1.4-3.3,3.9-4,3.9c-6.8,0-13.7,0-20.5,0c-19.9,0-39.9,0-59.8,0
		C244.2,677.6,243.2,675.8,242.3,673.9z M332.1,676.2c-0.1,1.5-0.1,2.3-0.1,3.2h-3.3c-0.1-0.2-0.2-0.4-0.3-0.5
		C329.4,678,330.5,677.3,332.1,676.2z M264.1,686h-15.3c-1.1-1.9-1.4-2.5-2.4-4.4c27.7,0,95.1-0.8,95.1-0.8c0,0.1-40.8,2.8-66.8,4.5
		C271.2,685.5,267.6,685.8,264.1,686z M291.8,685.9c28.8-1.8,44.8-3.5,73.6-5.3c0,0.2,0.1,0.4,0.1,0.6c-0.5,0.2-18.1,3.4-26.5,4.8
		L291.8,685.9z M347.3,686c9.2-1.5,24-4.2,24-4c-2.9,1.3-5.9,2.7-8.8,4L347.3,686z M366.4,686c3.1-1.3,5.2-2.6,8.3-3.7
		c3.6-1.4,7-1,11-0.5c9.2,1.2,15.3,3,24.5,4.5L366.4,686z M422,686c-8.9-1.5-17.5-2.7-26.4-4.1c-1-0.2,39,2.4,68.3,4.1L422,686z
		 M518.5,684.4c-0.1,0.6-0.5,1.1-1.1,1.6h-26.8c-10.2-0.6-20.3-1.2-30.5-1.8c-16.7-1-33.3-1.9-50-2.9c-6.7-0.4-13.4-0.8-20.1-1.1
		c0-0.1,0-0.2,0.1-0.4c21.9-0.7,43.8-1.4,65.7-2.1c14.1-0.5,28.2-0.9,42.4-1.5c6.2-0.3,11.8,1.7,17.3,4.3
		C516.9,681.2,518.9,682.1,518.5,684.4z M541.4,686c-1.9-0.2-3.7-0.2-5.5,0h-16.2c1.2-1.7,0.6-3.8-1.6-5.4c-1.5-1.1-3.2-2-5-2.7
		c-10.4-4-21.5-5.5-32.4-7c-23-3.1-46.1-4.5-69.3-5.4c-14.6-0.5-29.3-0.6-43.9-0.9c-0.9,0-1.8,0-2.7,0V588c0.4-0.2,0.6-0.3,0.8-0.3
		c7.7,0.2,15.4,0.5,23.2,0.8c0.8,0,1.8,0.5,2.5,0.9c4.1,2.6,8.2,5.1,12.2,7.9c3.8,2.7,7.9,5.1,9.8,10c0.5-0.8,1-1.9,0.8-2.6
		c-0.6-1.5-1.5-3-2.5-4.2c-2.2-2.6-4.6-5.1-7-7.6c4.2,2.8,8.3,5.7,12.1,9.1c5.2,4.7,8.7,10.4,9.2,17.7c0.2,2.4,2.5,3.5,4.3,4.7
		c0.3-0.4,0.3-0.5,0.3-0.5c-0.1-0.9-0.2-1.8-0.4-2.7c-1.3-8.5-3.5-16.8-8-24.2c-3.8-6.3-8.7-11.4-15.9-13.7
		c-3.8-1.2-7.8-1.8-11.8-2.6c-0.6-0.1-1.4-0.1-1.9,0.1c-5.1,2.2-10.5,1.5-15.8,1.7c-3.8,0.2-7.7,0-11.6,0c0-0.5-0.1-1.1-0.1-1.8
		c0.2-7.3,0.4-14.6,0.7-21.9c0.3-8.4,0.5-16.7,4.3-24.5c3.6-7.5,6.2-15.6,7.6-23.9c0.1-0.8,1-1.6,1.8-2.2c5.1-4.2,9.9-8.6,13.4-14.4
		c0.4-0.7,1.3-1.1,2.1-1.5c3.2-1.3,6.7-2.2,9.8-3.9c7.5-4.2,14.9-8.6,22.2-13.2c6.9-4.2,13.8-8.6,17.6-16.1
		c2.8-5.7,5.5-11.6,7.4-17.7c3.8-12.5,4.6-25.4,1.2-38.2c-2-7.5-5.6-13.9-13.5-16.8c-1-0.4-1.9-1-2.8-1.6c-4.5-3.3-5.8-8.8-3.5-14.3
		c2.2-5.2,7.9-8.6,13-7.7c5.6,1,11.4,1.8,16.9,0.1c4.8-1.5,9.5-1.3,14.4-1.2c4.8,0.1,9.5,0.3,14.3,0.5c7,0.3,13.9,0.6,21.2,1
		c-0.6-3.7-3.2-5.3-6-6.2c-10.9-3.5-21.8-6.8-32.7-10c-4.4-1.3-9-2.1-13.3-3.6c-3.7-1.3-7-3.6-10.8-4.8c-6.7-2.3-13.4-1.5-18.4,3.5
		c-9.7,9.7-15.1,21.7-14.7,35.4c0.3,11.2,4.7,20.7,15.5,26.2c2,1,4.3,2.8,5,4.7c3,8.4,3.5,17.2-0.2,25.5c-2.1,4.6-5.2,8.8-8.1,12.9
		c-1.4,1.9-3.4,3.6-5.5,4.8c-4.5,2.8-6.9,2.5-10.8-1.1c-1-0.9-1.7-2.2-2.3-3.4c-2.1-4.2-5.4-7-9.7-9c-6.1-2.8-12.1-2.4-18.3-0.6
		c-2.2,0.6-4.3,1.2-6.5,1.8c0.9-8.9,1.8-17.6,2.7-26.2c0.8-8.7,1.5-17.4,2.5-26c0.1-1.2,1-2.6,1.9-3.5c1.7-1.8,3.6-3.4,5.5-5.1
		c-0.1-0.2-0.2-0.3-0.3-0.4c-1.9,1.1-3.8,2.2-6.3,3.6c1.6-8.1,3.2-15.5,4.7-23c-0.6,0.9-1,1.9-1.3,2.9c-2,6.8-4,13.5-6,20.3
		c-0.7,2.2-2.9,3.9-4.7,3.2c-2.2-0.8-4.2-0.4-6.1,0.8c-9.4,5.8-17.8,12.7-25.5,20.5c-0.6,0.6-0.8,1.6-1.2,2.4
		c-0.3-0.3-0.6-0.6-1-0.9c-1.3-4.5-2.4-9.1-3.9-13.5c-1-2.8-1.2-5.6-0.5-8.5c0.3-1,1-2.2,1.9-2.7c1.9-1.2,3.3-2.5,3.8-4.8
		c4-16.2,5.9-32.7,4.2-49.4c-0.3-2.7-1.4-5.8-3.1-7.8c-1.4-1.6-1.9-3-1.8-4.9c0.1-3.6,0.1-7.3,0.1-10.9
		c19.9-12.9,41.4-23.4,64.3-31.1c13.2,38,49.4,65.5,92,65.9c42.3,0.4,79.4-26.4,93.1-64.8c54.2,19,101,53.8,134.7,99
		c0.7,5.2,1.8,10.4,3.2,15.5c0.6,2.1,1.7,3.4,3.5,4.4c0.9,0.5,1.7,1.7,1.9,2.7c0.7,2.7,0.5,5.3-0.5,8c-1.4,4.2-2.5,8.6-3.9,13.6
		c-0.8-1.1-1.1-1.7-1.5-2.1c-7.5-7.4-15.4-14.1-24.4-19.5c-1.5-0.9-3.6-1.1-5.4-0.9c-2.3,0.2-4.2-0.6-4.8-2.9
		c-1.1-3.7-2-7.4-3.2-11.1c-1.1-3.6-2.3-7.1-3.5-10.7c-0.1,0-0.2,0.1-0.3,0.1c1.4,6.9,2.8,13.8,4.3,21.4c-2.5-1.4-4.3-2.4-6.1-3.4
		c0.6,1.2,1.4,2.1,2.4,2.8c3,2.2,4.6,5,4.9,8.8c0.5,8.1,1.1,16.2,2,24.3c1.2,11.8,2.9,23.5,4.1,35.3c1.7,16.1,3.5,32.2,4.7,48.3
		c1.7,22.9,3.4,45.8,4,68.7c0.7,26.8,0.4,53.6,0.4,80.4c0,0.9-0.1,1.7-0.1,2.8c-1.7,0-3.2-0.1-4.7,0c-1.5,0.1-1.8,0.9-0.9,2
		c0.9,1.1,2,2,3.1,2.8c3.5,2.7,7,5.3,10.5,8c-1.3,0.1-2.4-0.2-3.4-0.6c-6.6-2.6-13.1-5.3-19.7-7.8c-4.6-1.7-8.9-4.3-14.1-4
		c-20.4,1.1-40.7,2.2-61.1,3.5c-2.3,0.2-3.1-0.8-3.2-2.7c0,0,0-32.4,0.2-41.1c0.1-4.2,0.7-8.3,1.5-12.4c0.5-3,0.5-5.8-0.3-8.7
		c-0.4-1.5-0.8-3.5-1.3-5.1c0.6-0.1,9.6,1.3,13.8,1.8c1.6,0.2,3.3,0.7,4.9,0.6c4-0.3,5.5-4.3,4.2-9c-4-13.7-8-27.4-11.6-41.3
		c-1.1-4.5-0.8-9.4-1.1-14.6c5.2,0.4,9.8,0.8,14.4,1.1c1.9,0.2,3.8,0.5,5.6,0.5c1,0,2.1-0.7,3.4-1.2c1.6,0.7,3.5,1.7,5.5,2.3
		c1.2,0.4,2.6,0,4,0c-0.2-1.2-0.3-2.3-0.4-3.5c0-0.2,0-0.5,0-0.9c2.8,1.5,5.3,3.3,8,4.4c4.4,1.8,7.8,4.7,10.9,8.2c1.7,2,4,3.6,6.3,5
		c3.1,1.8,4.9,1.4,6.7-1.7c1-1.8,1.3-4,1.9-6c0.2-0.7,0.1-1.5,0.2-2.6c0.7,0.5,1,0.8,1.5,1c0.7,0.3,1.4,0.4,2.1,0.6
		c0-0.8,0.1-1.6-0.2-2.3c-0.4-1.4-1.1-2.7-1.6-4.1c-1.9-4.7-4-9.3-7.4-13.3c-8.7-10.2-18.4-19.5-28.4-28.4
		c-11.9-10.7-25.2-19.1-40.2-24.5c-9-3.3-18.2-5.9-27.1-9.6c-4.4-1.8-9.2-3-14-2c-6.8,1.4-12.2,4.5-15.2,11.2
		c-1.7,3.8-6.3,5.6-9.5,4c-2-1-4.2-2.2-5.7-3.8c-8.1-9-12.8-19.2-10.6-31.7c0.8-4.5,2.4-8,6.8-10.1c9.3-4.4,12.9-12.8,13.7-22.2
		c1-12.5-4.3-23-11.8-32.5c-2-2.6-4.7-4.1-7.8-4.9c-4.7-1.2-9.2-1.2-13.7,1.1c-3,1.6-5.9,3.4-9.1,4.3c-7.9,2.3-16,3.9-23.9,6.1
		c-5.7,1.6-11.2,3.7-16.8,5.7c-2.4,0.9-4.6,2.2-5,5.4c1.2,0,2.2,0,3.2,0c11.9-0.5,23.8-1,35.7-1.4c1.1,0,2.3,0,3.4,0.4
		c4.7,1.6,9.5,1.9,14.4,1.3c2.5-0.3,5.1-1,7.5-0.6c5.6,0.9,9.3,5.2,9.9,10.5c0.6,5.3-1.7,9.1-7.3,11.5c-4.2,1.8-7.5,4.7-9.2,8.8
		c-1.7,4.1-3.3,8.5-3.8,12.9c-2.1,16.3,1.5,31.5,9.5,45.8c0.8,1.4,1.6,2.8,2.6,3.8c4.8,4.9,10.3,8.9,16.4,12.1
		c4.2,2.2,8.4,4.5,12.4,7.1c4.4,2.8,8.5,5.9,13.8,6.7c0.7,0.1,1.5,0.7,1.9,1.3c3.2,5.4,7.8,9.5,12.5,13.5c0.7,0.6,1.2,1.6,1.5,2.6
		c1.3,4.2,2,8.7,3.6,12.8c4.7,12.1,11.3,38.8,13.4,53.4c-9-0.3-17.6-0.5-26.2-0.8c-0.4,0-0.8-0.1-1.2-0.2c-3.2-1.7-6.5-0.9-9.9-0.4
		c-10.3,1.5-17.7,7.1-22,16.3c-2.6,5.5-4,11.6-5.7,17.5c-0.5,1.7-0.6,3.6-0.9,5.4c0.3,0.2,0.6,0.3,0.8,0.5c1.2-1.5,3.2-3,3.4-4.6
		c0.8-6.9,4.1-12.3,9-16.8c3.3-3,7.1-5.5,10.6-8.3c0.2,0.2,0.3,0.4,0.5,0.6c-0.6,0.5-1.2,0.9-1.7,1.4c-2.4,2.6-4.8,5.1-7.1,7.9
		c-0.9,1.1-1.2,2.5,0.2,3.7c1-1.6,1.6-3.1,2.7-3.9c8.6-6.8,16.5-15.1,29-14.1c0.2,0,0.5-0.1,0.7-0.1l18.3,0.1c0.1,2.1,0.3,3.5-0.1,5
		c-0.8,2.8-1,5.6,0,8.5c0.4,1.1,0.6,2.4,0.6,3.6c0.1,11.7,0.2,23.4,0.2,35c0,0.3-0.1,15.1-0.1,15.1c-0.2,3.6-0.9,3-5.2,3.7
		c-9.6,1.5-18.9,3-28.4,4.9c-4.6,1-9.4,2.2-13.4,5.4c-3,2.4-3,5.1,0.2,7.1c2,1.2,4.3,2.3,6.6,3H541.4z M367.2,441.1
		c0.4-12,0.8-24,1.3-36c0-0.9,0.5-1.9,1.1-2.6c1.8-2.1,3.7-4.1,5.9-6.5c-2.6,16.2-5.1,31.7-7.6,47.2h-0.6
		C367.3,442.6,367.2,441.9,367.2,441.1z M697.8,407.9c3.7,1.9,6.1,5.8,6.3,10.3c0.6,14.2,1.2,28.4,1.8,42.6c0,0.8,0,1.6,0,2.4
		c0.1,0.4,0.1,0.9,0.2,1.3c-0.1,0-0.1,0-0.2,0c0-0.4,0-0.9,0-1.3C703.2,444.6,700.5,426.1,697.8,407.9z M636.8,676l52.3,0.2
		c-20.6,1.2-35.6,2.4-56,3.6c0.2-1.1,0.4-2,0.8-3.4c1.2,0.8,2.3,1.5,3.8,2.4C637.3,677.8,637.1,677,636.8,676z M642.9,674.2
		c-5.2,0-9.9,0-15.1-0.2c-3.6-0.2-7.8,0.2-11.4-0.3v-7c8.7-0.9,15.8,0.1,24,1c13.5,1.5,27.3,2.5,40.8,4.1c7.9,0.9,18.3,2.4,26.5,3.4
		C705.1,675.2,663.2,674.2,642.9,674.2z M638,665.1c0-0.1,6.3-0.4,11.6-0.7c9.8-0.4,18.7-0.9,28.5-1.2c2.1,0,3.5,0.2,5.5,1
		c6.1,2.2,19.8,7.7,22.2,8.7C705.6,673.2,662.3,667.9,638,665.1z M613.3,590.5c-1.8-9.1-2.9-17.8-5.1-26.8
		c-2.8-11.6-2.1-23.7-2.3-35.3c0-0.9,1.2-2.4,2-2.5c1.6-0.3,3.4-0.1,4.5,1.7c6.8,11.8,11.7,24.2,14.2,37.6c1.2,6.4,2.7,12.7,4.1,19
		c0.7,3.4-1.2,6.1-4.6,6.2C621.7,590.6,617.9,590.5,613.3,590.5z M608.8,667.2c0.1,2.5-1.5,3.6-3.1,4.1c-3.7,1.1-7.4,2.4-11.2,2.7
		c-7.8,0.6-15.6,0.7-23.4,0.4C583.4,670.3,596,668.7,608.8,667.2z M564.2,681.4c-1.2-1-1.2-3.2,0.1-4.2c1.2-0.9,1.7-1.1,3.6-2.1
		c0.3,3.1,1.9,3.6,3.7,3.6c3.7,0,7.5,0,10.8,0c-0.1,0.1-0.7,0.7-1.4,1.3c3.4,0.4,6.7,1,9.9,1c4.2,0,8.5-0.5,12.8-0.9
		c2.2-0.2,4.1-1,5.3-3.1c0.3-0.5,1.4-0.8,2-0.8c5.5,0.9,10.9,1.9,16.4,2.8c0.8,0.1,1.5,0.3,2.2,0.8c-8.8,0.6-17.7,1.1-26.5,1.7
		c-10.7,0.7-20.8,1-31.6,1.8C568.5,683.8,566.4,683.2,564.2,681.4z M575.7,686c-0.4-0.1-0.8-0.1-1.2-0.2c-0.8-0.1-1.5-0.5-2.2-0.7
		c0-0.2,135.8-8.6,135.8-8.4c-5.7,1-11.4,1.9-17.1,2.9c-12.5,2.1-25,4.3-37.5,6.4H575.7z M660.8,686.3c18.1-3.1,31.8-5.8,49.9-8.9
		c0.1,0.2,1.8-0.3,1.9-0.1c-4.2,1.9-8.5,3.8-12.7,5.7c-2.3,1-4.5,2-6.8,3L660.8,686.3z M745.6,685.3c-3.8-0.6-7.6-1.3-11.4-2.1
		c-11-2-21.5-0.5-32,2.8l-6.4,0c4.2-1.9,7.8-3.4,12-5.3c2.2-1,4.3-1.9,6.4-3c2.6-1.5,5-1.6,7.8-1.1c8.7,1.4,17.4,2.8,26.1,4.1
		C747.3,682.3,746.4,683.8,745.6,685.3z M748.7,679.5c-6.1-1-12.4-1.7-18.5-2.9c6.5,0.4,12.9,1,19.4,1.4
		C749.2,678.8,749.1,678.8,748.7,679.5z M750.3,676.7c-6.2-0.4-12.6-0.5-18.8-0.9c-0.4,0-0.8-0.1-1.1-0.1c0-0.1,0-0.1,0-0.2
		c7-0.2,13.6-0.2,20.6-0.4C750.6,675.8,750.6,676,750.3,676.7z M751.8,673.5c-8.6,0.3-17.4,1.1-26,1.4c0-0.1,10.1-2,15.1-2.8
		c4.3-0.7,8.3-1.3,12.6-2C752.8,671.5,752.6,672,751.8,673.5z M754.4,668.5c-10.7,1.9-21.5,3.7-32.6,5.7c4.3-2.9,7.2-6,7-11.6
		c9.3,0.4,18.6,0.7,27.9,1.1C755.9,665.3,755.1,666.9,754.4,668.5z M757.9,660.8c-0.1,0.3-0.3,0.7-0.5,1h-7.3
		c2.3-31.4,2.8-62.7,7.8-93.7V660.8z M758.1,474.7c-0.4-2.7-0.7-5.4-1.1-8.1c0.2,0,0.5,0,0.7-0.1c0.3,2.7,0.5,5.4,0.8,8.1
		C758.3,474.7,758.2,474.7,758.1,474.7z M775.9,483.8c0.3,1.2,0.5,2.4,0.8,3.7c-0.4,0.9-1,1.9-1.7,2.8
		C775.3,488,775.6,485.9,775.9,483.8z M760.5,437.4c-0.1-1.1-0.3-2.3-0.4-3.5c0.4,0.9,0.8,1.8,1.1,2.8c0,0.2,0,0.5-0.1,0.7
		C760.9,437.5,760.7,437.4,760.5,437.4z M762.2,530.1c-0.3-7.4-0.7-14.7-1-21.9C763.3,515.3,766.8,522.3,762.2,530.1z M767.8,612
		c-0.1,7.9-0.1,15.8-0.1,23.7c-1.9,5.8-4,11.4-6.3,17c0-1,0-2,0-3c0.1-14.3,0.3-28.6,0.5-42.9c0.2-19.6,0.7-39.3,0.5-58.9
		c-0.1-7.5,1.6-14.4,3.4-21.4c0.3,0,0.6,0,0.9-0.1c0.7,5,1.9,10,1.9,14.9C768.5,564.8,768,588.4,767.8,612z M768.8,507.5
		c-0.7-6.2-1.4-11.9-2.1-17.6C768.4,495.4,772.9,500.7,768.8,507.5z M765,474.3c-1.1-5-1.6-10.2-1.9-15.4c-0.2-4.5,0.2-9,0.4-13.5
		c0-0.8,0.2-1.5,0.2-2.3c2.7,7,5.1,14,7.2,21.2c0.1,2.1,0.3,4.3,0.5,6.4c0.2,1.7,1.5,3.2,2.3,4.9c0.2,0.5,0.6,1.1,0.6,1.6
		c-0.8,6.1-1.8,12.2-2.6,18.2c-0.2,0.1-0.4,0.1-0.7,0.2C768.9,488.6,766.6,481.5,765,474.3z M770.6,626.8v-64.6c0.2,0,0.3,0,0.5,0
		c1.1,16.9,2.4,33.9,3.3,50.8C773.2,617.6,771.9,622.2,770.6,626.8z M779.2,555.7c-0.7,7-1.5,14.1-2.6,21.1c-0.2-2-0.5-3.9-0.7-5.9
		c-1.4-12.5-3.1-25-3.9-37.5c-0.5-7.5,0.5-15.2,0.8-22.8c0.4,0,0.8-0.1,1.2-0.1c2.1,11.4,4.3,22.7,6.1,34.2
		C780.5,548.3,779.5,552,779.2,555.7z M781.7,535.8c-0.2,0-0.5,0-0.7,0.1c-1.1-5.4-2.1-10.9-3.3-16.3c-0.9-4.2-1.8-8.4-3.1-12.4
		c-1.2-3.8-1-7.2,0.6-10.8c0.8-1.7,1.4-3.5,2.2-5.2c1.3,6.6,2.3,13.4,3.1,20.2c0,0,0,0,0,0.1C781.3,519.5,781.8,527.7,781.7,535.8z"
		/>
</g>
</svg>
